<?xml version="1.0" ?><svg xmlns="http://www.w3.org/2000/svg" viewBox="0 0 32 32"><g id="_29_check-verified-01" data-name="29 check-verified-01"><path d="M15,19.58A2,2,0,0,1,13.59,19l-3.3-3.29,1.42-1.42L15,17.59l6.29-6.3,1.42,1.42L16.42,19A2,2,0,0,1,15,19.58Z"/><path d="M16.07,28.79a4.2,4.2,0,0,1-3.35-1.65,2.24,2.24,0,0,0-2.1-.84A4.24,4.24,0,0,1,5.8,21.56a2.26,2.26,0,0,0-.88-2.08,4.24,4.24,0,0,1-.06-6.76,2.24,2.24,0,0,0,.84-2.1A4.25,4.25,0,0,1,10.44,5.8a2.25,2.25,0,0,0,2.08-.89,4.22,4.22,0,0,1,3.37-1.7h0a4.2,4.2,0,0,1,3.35,1.65,2.24,2.24,0,0,0,2.1.84h0a4.25,4.25,0,0,1,4.82,4.74,2.26,2.26,0,0,0,.88,2.08,4.24,4.24,0,0,1,.06,6.76,2.24,2.24,0,0,0-.84,2.1,4.24,4.24,0,0,1-4.74,4.82,2.25,2.25,0,0,0-2.08.89,4.22,4.22,0,0,1-3.37,1.7Zm-5.13-4.52a4.25,4.25,0,0,1,3.36,1.65,2.17,2.17,0,0,0,1.79.87,2.19,2.19,0,0,0,1.78-.9,4.24,4.24,0,0,1,3.95-1.67,2.23,2.23,0,0,0,1.88-.65,2.26,2.26,0,0,0,.62-1.9,4.25,4.25,0,0,1,1.6-4,2.24,2.24,0,0,0,0-3.57,4.24,4.24,0,0,1-1.67-3.94,2.24,2.24,0,0,0-2.55-2.51h0a4.22,4.22,0,0,1-4-1.6,2.33,2.33,0,0,0-1.79-.87,2.19,2.19,0,0,0-1.78.9,4.24,4.24,0,0,1-4,1.67,2.23,2.23,0,0,0-1.88.65,2.26,2.26,0,0,0-.62,1.9,4.25,4.25,0,0,1-1.6,4,2.24,2.24,0,0,0,0,3.57,4.24,4.24,0,0,1,1.67,3.94,2.24,2.24,0,0,0,2.55,2.51A4.18,4.18,0,0,1,10.94,24.27ZM21.53,6.69h0Z"/></g></svg>